<?xml version="1.0" standalone="no"?>
<!DOCTYPE svg PUBLIC "-//W3C//DTD SVG 20010904//EN"
 "http://www.w3.org/TR/2001/REC-SVG-20010904/DTD/svg10.dtd">
<svg version="1.0" xmlns="http://www.w3.org/2000/svg"
 width="700.000000pt" height="700.000000pt" viewBox="0 0 700.000000 700.000000"
 preserveAspectRatio="xMidYMid meet">
<metadata>
Created by potrace 1.14, written by Peter Selinger 2001-2017
</metadata>
<g transform="translate(0.000000,700.000000) scale(0.100000,-0.100000)"
fill="#000000" stroke="none">
<path d="M655 6875 c-280 -52 -494 -277 -535 -560 -8 -58 -10 -835 -8 -2865 3
-2654 4 -2788 21 -2844 73 -237 244 -406 478 -473 61 -17 187 -18 2889 -18
2711 0 2828 1 2890 18 230 65 412 247 477 477 17 62 18 179 18 2890 0 2702 -1
2828 -18 2889 -67 234 -236 405 -473 478 -56 17 -188 18 -2864 19 -2269 2
-2818 0 -2875 -11z m1938 -1328 c406 -61 703 -198 914 -420 163 -172 243 -389
243 -661 -1 -413 -209 -731 -605 -920 -49 -24 -115 -51 -145 -61 -30 -10 -58
-20 -63 -22 -4 -2 20 -25 54 -50 140 -105 207 -211 481 -758 220 -439 283
-549 353 -615 l36 -35 19 25 c11 14 27 45 37 70 17 42 18 134 21 1548 l2 1503
-32 14 c-56 23 -179 44 -298 51 l-113 7 6 136 c3 75 11 153 17 174 l11 37 913
0 914 0 4 -67 c5 -74 -5 -183 -23 -243 -11 -37 -14 -38 -83 -55 -103 -24 -208
-77 -249 -125 -72 -84 -67 28 -67 -1656 l0 -1514 463 0 c292 0 485 4 522 11
112 21 191 77 266 192 47 72 61 135 89 382 12 105 24 193 28 196 7 6 343 -8
349 -15 1 -1 10 -92 20 -202 11 -139 17 -312 17 -574 l1 -375 -1881 -3 c-1498
-2 -1884 1 -1891 10 -6 7 -171 355 -368 773 -421 894 -435 923 -477 971 -18
20 -55 48 -83 60 -44 21 -65 24 -182 24 l-133 0 0 -684 0 -684 63 -21 c118
-38 264 -68 421 -86 l59 -7 -6 -126 c-2 -70 -10 -151 -17 -180 l-12 -52 -966
2 -967 3 -3 59 c-3 65 11 200 28 257 10 35 12 36 93 56 156 39 239 93 281 183
21 45 21 46 24 1558 l2 1513 -32 14 c-56 23 -179 44 -297 51 l-114 7 6 116 c3
64 11 142 18 174 l12 58 1106 -4 c960 -3 1120 -6 1214 -20z"/>
<path d="M1680 4465 l0 -718 243 6 c202 4 255 8 320 26 232 62 377 220 429
469 17 82 19 122 15 257 -6 178 -24 263 -80 370 -40 77 -145 181 -224 223
-113 59 -189 73 -460 79 l-243 6 0 -718z"/>
</g>
</svg>
